<svg version="1" xmlns="http://www.w3.org/2000/svg" width="346.667" height="346.667" viewBox="0 0 260.000000 260.000000"><path d="M180.7 12.6c1.5 8.8 3.9 14.8 8.8 21.4l3.5 4.7-4.2 1.9c-5.7 2.6-12.3 9.5-14.1 14.8-.9 2.7-1.5 7.4-1.4 11.5.1 3.9-.2 6.3-.6 5.5-.4-.7-.9-4.1-1-7.4-.1-3.3-.3-6-.4-6 0 0-1.5 2.4-3.2 5.2-3.3 5.7-6.5 9.8-7.6 9.8-.4 0 .5-1.6 1.9-3.5 5.5-7.1 8-14.3 8.4-24 .2-5 0-10.6-.6-12.5-.8-3.2-.9-2.9-1.1 3.5-.2 9.9-1.6 15.1-5.7 21.7-3.1 4.9-3.9 5.2-4.2 1.7-.1-1.7-1.1-4.9-2.2-7.3l-2.1-4.3 2-4.4c1.2-2.4 2.1-6.4 2.1-8.9l-.1-4.5-2.9 6c-1.7 3.4-4.4 7.1-6.4 8.5l-3.4 2.5 3 3c3.3 3.4 4.3 6.4 3.3 10.2-1.9 7.8-8.5 13.1-17 13.7-5.6.4-5.8-1-.9-6.4 4.2-4.6 6.2-9.7 5.6-14-.5-3.8-1.8-3.9-2.5-.3-.3 1.6-2.2 4.6-4.2 6.8l-3.6 4-3.4-4c-1.9-2.2-4.1-5.6-4.7-7.5l-1.3-3.5-.5 4c-.8 5.2.9 9.5 6 15.2 2.2 2.5 3.8 4.8 3.6 5.1-.3.2-2.5.4-5 .4-9.5-.2-17.1-7.3-17.1-15.9 0-3.4.6-4.8 3.4-7.7 1.9-2 3.1-3.6 2.5-3.6-2.1-.1-7.5-6.1-9.9-11.1l-2.5-5.4v4.2c0 2.3.9 6.3 2 8.9l2.1 4.7-2 4.3c-1.2 2.4-2.2 5.6-2.3 7.3-.3 3.5-1.1 3.2-4.2-1.7-3.6-5.8-5.7-13.4-5.8-21.4-.1-9.9-1.6-5-1.7 5.8-.1 9.9 1.6 16.2 6.9 24.2 2.2 3.4 3.7 6.2 3.4 6.2-1 0-4.4-4.4-7.5-9.8-1.7-2.8-3.2-5.2-3.3-5.2 0 0-.2 3-.3 6.7-.1 3.6-.6 7-1 7.4-.4.4-.7-2.4-.6-6.2.1-4.2-.5-8.9-1.4-11.7-1.9-5.4-8.2-11.9-14.1-14.6l-4-1.8 4.3-6.3c4.8-7 7.1-13.3 8-21.5l.6-5.5-3.9 6c-5.8 8.9-9.3 11.7-37.2 30.3C11.5 60.1 8.8 62.5 3.4 74.6c-5.2 11.3-3.8 26.8 3.1 35.9 2.4 3.2 10.3 8.3 14.2 9.3 1.5.4 8.4.7 15.3.7 11.7 0 12.8-.2 17.7-2.8 2.9-1.5 5.6-2.6 6-2.5.4.2.7 3.2.8 6.8.2 8.9 1.3 16.4 3.2 23 .9 3 1.7 5.9 1.9 6.5 2.1 9.3 15 37.8 16.8 37.2 2.6-.9 3-11.4 1.1-29.2-2-19.7-1.9-20 7-19.6l5.8.3-5.2-6.1c-2.9-3.4-5-6.1-4.6-6.1.3 0-1.6-2.1-4.2-4.8-5.5-5.3-10.8-13.6-9.8-15.2.4-.7 1.7 1 3 3.8 3.1 6.6 9 13.1 14.1 15.4 2.3 1 4.4 2.5 4.8 3.3.3.8 1.2 1.5 1.9 1.5s1.9 1.1 2.7 2.4c1.2 2.4 1.4 3.6 1.1 10.4l-.1 3.4-6.2-.7c-3.5-.4-6.6-.9-7-1.2-1.9-1.1-.3 2.7 7.2 17.5l8.1 15.7v12.1c.2 29.9 4.5 47.8 12.6 53.1l2.1 1.4.1-18.9c0-10.5.3-25.1.7-32.6.6-12.5.5-13.6-1.1-13.6-1.7 0-1.7-5.3-.2-29.8 0-.6 1.2-1.2 2.6-1.2 2.4-.1 2.5-.2.8-1.4-1.3-1-1.6-2.1-1.1-4 .5-2.2 1.2-2.6 4-2.6s3.4.4 3.4 2.1c0 1.1.5 1.7 1 1.4 1.3-.8 1.3 1.1-.1 3.8-.8 1.3-1.1 7.6-.9 18.1.3 21.2.2 30.2-.6 60.7l-.7 25.6 3.2.6c1.8.4 4.2.2 5.3-.4 2-1.1 2.1-1.6 1.4-24.3-.9-36.4-1-39-.7-59.2.2-12.7 0-19.8-.8-21.2-1.4-2.6-1.4-4.5-.1-3.7.9.6 1.4-.8 1.1-2.8 0-.4 1.4-.7 3.3-.7 4.3 0 5.8 3 3 6.1-1.6 1.8-1.6 1.9.8 1.9 1.3 0 2.5.6 2.6 1.2 0 .7.4 7.7.8 15.5.6 13.2.5 14.3-1.1 14.3s-1.7 1-1.1 12.2c.4 6.8.7 21.4.7 32.6.1 11.1.4 20.2.8 20.2 1.5 0 6.1-5.7 8-10 3.7-8.4 6.2-28.2 6.2-48.2 0-8.6.1-8.8 5.6-19.5 8.3-16.1 10.3-20.2 10.3-21.1 0-.5-2.1-.5-4.7-.1-9.1 1.5-9.1 1.5-9.5-4.3-.3-5.5 1.5-10.8 3.8-10.8.7 0 1.9-.8 2.6-1.8.7-1 2.7-2.4 4.5-3.1 4.6-1.9 9.9-7.7 13.1-14.3 2.5-5.4 4.2-7.3 4.2-4.6 0 3.8-9.5 15.7-16 20-2.3 1.5-2.4 1.6-.3 1.1 1.8-.4 1.2.6-2.7 4.8-4.5 4.8-6.5 7.9-4.1 6.5.5-.3 3-.7 5.6-.8 8-.3 8.3.9 5.4 25.8-.5 5-.9 11.1-.8 13.5.3 4.7 1.7 9.9 2.7 9.9 1.1 0 6.8-11 10.2-19.6 8-20.2 11-32.1 11.5-45.9.1-4.4.5-8.1.9-8.3.3-.1 3 1 5.8 2.4 9.1 4.6 27.5 4.8 37.4.5 5.6-2.5 10.9-7.9 13.7-13.9 1.6-3.7 2.1-6.8 2.1-14.2.1-8.3-.3-10.2-2.7-15.4-5.8-12.4-8.1-14.5-35.6-32.8-27.6-18.3-32.3-22.2-37.8-31.1-2-3.1-3.7-5.7-3.8-5.7-.1 0 .5 3.4 1.2 7.6zm-111.1 31c4.1 1.9 9.1 7.5 11.1 12.1 1.8 4.4 2.2 11 1 14.6l-1 2.9-7.8-.4c-4.4-.2-7.9 0-7.9.3 0 1.1-12.1 12.4-16.5 15.6-6.2 4.4-8.3 5-13.9 4.2-5.9-1-9.6-4.4-9.6-8.8 0-3.7 4.6-10.6 11.3-16.8 5.3-4.9 5.6-5 7.2-3.3 3.8 4.2 11.8 3.2 14.8-1.9 2.2-3.7 2.2-8.9 0-11.3-1.6-1.7-1.5-2 1.7-5.3 3.8-4 4.8-4.2 9.6-1.9zM200 45.5c3.2 3.3 3.3 3.6 1.7 5.3-2.2 2.4-2.2 7.6 0 11.3 3 5.1 11 6.1 14.9 1.8 1.6-1.8 1.9-1.6 8.1 4.4 6.8 6.5 10.3 12 10.3 16 0 3.9-3.6 7.6-8.3 8.4-6.4 1.1-8.6.6-14.1-3.2C207.5 86 195 74.3 195 73.1c0-.3-3.5-.5-7.9-.3l-7.8.4-1-2.9c-3.1-9.1 2.7-21.8 12.2-26.7 4.3-2.3 5.7-2 9.5 1.9zM57.3 54c.8 3.1-.5 7.1-2.8 8.6-4.3 2.8-12.8.2-9.5-2.9 1-.9 1.3-.9 1.7 0 .7 1.8 5.8 1.6 7.3-.3 1.1-1.2 1-1.8-.4-3.2-1.5-1.5-1.6-1.5-1.1-.1.3.9 0 2.1-.8 2.8-1.1.9-1.7.8-2.8-.5-1.1-1.4-.9-2 2.1-4.4 3.6-3 5.5-3 6.3 0zm154 2.6c.8 1.8-.8 3.5-2.7 2.8-1.2-.4-1.6-1.4-1.2-2.7.5-1.9.4-1.9-1.2-.4-1.5 1.6-1.5 1.8.3 3.7 1.9 1.8 2.2 1.8 4.9.5 2.1-1.1 3.2-1.3 4-.5 2.4 2.4-4.6 5-8.9 3.4-3.6-1.4-5.3-9.7-2.3-11.5 1.2-.7 6.2 2.6 7.1 4.7zM110.8 72.2c2 2.1 5.1 4.3 7 4.9 1.8.6 3.1 1.3 2.9 1.6-.3.2-2.6-.4-5-1.5-2.5-1.1-4.8-1.8-5-1.5-.9.8-5.4-6.9-6.1-10.2l-.6-3 1.6 3c.9 1.6 3.2 4.7 5.2 6.7zm44.7-6.5c-.7 3.2-5.4 10.7-6.2 10-.2-.3-2.5.4-5 1.5-2.4 1.1-4.7 1.7-5 1.5-.2-.3 1.1-1 3-1.6 4.2-1.4 9.9-6.8 11.7-11 1.5-3.8 2.4-4 1.5-.4zm-60.2 7c.7 1 .3 1.3-1.4 1.3-3.7 0-4.7-1.2-4.2-4.7l.5-3.3 2.1 2.8c1.1 1.5 2.5 3.3 3 3.9zm75-2.5c.5 3.7.4 3.8-2.9 3.8H164l2.8-3.9c1.5-2.1 2.8-3.8 2.8-3.7.1 0 .4 1.8.7 3.8zm-37.6 11.4c2.8-.3 5.9-.9 6.9-1.3 1.1-.4 1.5-.2 1.3.6-.6 1.6-7.5 4.4-10.9 4.4-3.2 0-9.7-2.5-11.6-4.5-1.4-1.4-1-1.4 3.8-.1 3.2.8 7.3 1.2 10.5.9zm-7.4-1.9c-.7.2-1.9.2-2.5 0-.7-.3-.2-.5 1.2-.5s1.9.2 1.3.5zm1.8 7.4l2.9 2 3.1-2.1c4-2.9 4.2-2.2.3 1.5l-3.2 3.1-3.6-3.3c-4-3.7-3.8-4.3.5-1.2zm-40.6 16.3c2.4-.9 12.5 6 12.5 8.5 0 .6 1.2 1.8 2.6 2.8 2.1 1.3 3.2 1.5 5.5.6 2.2-.8 3.1-.8 3.9.2.8 1 .3 1.5-2.2 2.3-7 2.2-9.2 2.3-12.4.3-4.1-2.5-12.6-13.4-12.3-15.8 0-.5.3-.3.5.4.3.7 1.1 1 1.9.7zM173 108c-1.8 2.8-5.2 6.6-7.5 8.5-4 3.4-4.4 3.5-9.1 2.6-7.3-1.4-8.7-2.1-7.4-3.6.8-1 1.8-1 3.9-.2 3.9 1.4 8-1.2 8.2-5.1l.1-2.7.8 3c.5 2.1.8 2.4.9.9.2-3.5 7.7-9.1 10.7-8 .8.3 1.4 0 1.4-.6s.3-.9.6-.5c.4.3-.8 2.9-2.6 5.7zm-91 1.8c0 .4-.9-.7-2-2.3-1.1-1.7-2-3.5-2-4 0-.6.9.5 2 2.3 1.1 1.8 2 3.6 2 4zm16.7-1.6c-.3.7-.5.2-.5-1.2s.2-1.9.5-1.3c.2.7.2 1.9 0 2.5zm81.4-.9c-1 .9-1.1.8-.5-.6.3-1 .9-1.5 1.2-1.2.3.3 0 1.1-.7 1.8zm-76 1.5c-.7.2-1.8-.1-2.3-.6-.8-.8-.4-.9 1.3-.5 1.3.4 1.8.8 1 1.1zm54.4-.8c-.3.5-1.4 1-2.3.9-1.4 0-1.3-.2.3-.9 2.7-1.1 2.7-1.1 2 0zm19.3 3c-.7 1.1-1.9 2.2-2.8 2.5-.8.4-.4-.5.9-1.9 2.9-3.1 3.6-3.3 1.9-.6zm-86.5 6.6c2.7 1.4 3.5 2.4 1.9 2.4-1.3 0-10.2-7.1-10.2-8.1 0-.4 1.2.3 2.8 1.7 1.5 1.5 3.9 3.2 5.5 4zM75.9 119c.3.3 1.3 1.4 2.1 2.5 1 1.4.6 1.3-1.4-.5-1.5-1.4-3.4-3.7-4.2-5.2-2.2-4.2-1.7-4.7.7-.8 1.2 1.9 2.4 3.7 2.8 4zm111.8-3.3c-.8 1.5-2.7 3.9-4.2 5.3-2.3 2-2.1 1.6.9-2.3 2-2.7 3.6-5.3 3.6-5.9 0-.6.3-.9.6-.6.3.4-.1 1.9-.9 3.5zm-13.7-.3c0 .9-6.9 4.6-8.6 4.6-1 0 .1-1 2.6-2.4 4.6-2.4 6-2.9 6-2.2zm-50.4 25.4c-2.2.5-3-.3-2.1-1.8.5-.8 1.1-.7 2.2.2 1.5 1.2 1.4 1.3-.1 1.6zm14.8-1.3c.4 1-.1 1.5-1.6 1.5-1.7 0-1.8-.2-.8-1.5.7-.8 1.4-1.5 1.5-1.5.2 0 .5.7.9 1.5z"/><path d="M87 128.4c0 .2.9.6 2 .9 1.1.3 1.8.1 1.4-.4-.5-.9-3.4-1.3-3.4-.5z"/></svg>